Coordinates
version=1
nRows=26
nColumns=30
inDegrees=yes

Units are S.I. units (second, meters, Newtons, ...)
Angles are in degrees.

endheader
time	floatyaw	floatroll	floatpitch	floatx	floaty	floatz	pro_sup_l	deviation_l	flexion_l	cmc_flexion_l	cmc_abduction_l	mp_flexion_l	ip_flexion_l	2mcp_flexion_l	2mcp_abduction_l	2pm_flexion_l	2md_flexion_l	3mcp_flexion_l	3mcp_abduction_l	3pm_flexion_l	3md_flexion_l	4mcp_flexion_l	4mcp_abduction_l	4pm_flexion_l	4md_flexion_l	5mcp_flexion_l	5mcp_abduction_l	5pm_flexion_l	5md_flexion_l
-0.495000	-160.147433	-5.066637	-73.570646	-0.003284	-0.154565	-0.076917	108.301335	17.487053	-6.222575	13.137148	7.200295	-30.010905	-48.012735	39.091673	12.105250	56.890580	52.753942	36.425690	5.581276	65.796774	43.966732	30.183429	-5.576265	72.864487	56.472754	23.156635	-11.997049	80.615445	61.600696
-0.485000	-160.147433	-5.066637	-73.570646	-0.003842	-0.154693	-0.077167	107.581529	17.572193	-6.178709	13.160338	7.306172	-30.130945	-48.236510	39.475816	12.134162	56.813956	52.808813	36.749697	5.589691	66.083636	44.176396	30.354272	-5.571428	73.275189	56.725474	23.131609	-11.957986	81.075226	61.770333
-0.475000	-160.147433	-5.066637	-73.570646	-0.004424	-0.154690	-0.077514	106.847993	17.647529	-6.132774	13.190290	7.335991	-30.220297	-48.396307	39.721029	12.142802	56.659466	52.790132	36.987308	5.587163	66.263910	44.327852	30.449089	-5.554573	73.556886	56.903607	23.012806	-11.905108	81.358828	61.868230
-0.465000	-160.147433	-5.066637	-73.570646	-0.005047	-0.154500	-0.077964	106.177616	17.732255	-6.101743	13.216149	7.304443	-30.292286	-48.519059	39.849575	12.128795	56.440779	52.751781	37.171076	5.574286	66.306522	44.399403	30.485425	-5.526703	73.687784	57.009795	22.831517	-11.839167	81.454878	61.913532
-0.455000	-160.147433	-5.066637	-73.570646	-0.005734	-0.154089	-0.078521	105.618531	17.838727	-6.091969	13.228732	7.240567	-30.349775	-48.621558	39.899240	12.090352	56.180309	52.722108	37.348829	5.552961	66.191073	44.371539	30.490041	-5.489778	73.660288	57.044575	22.617127	-11.767208	81.374650	61.924026
-0.445000	-160.147433	-5.066637	-73.570646	-0.006506	-0.153463	-0.079180	105.176268	17.970251	-6.101156	13.222471	7.184926	-30.377971	-48.698457	39.911091	12.028819	55.907907	52.700427	37.563456	5.526168	65.921804	44.236948	30.497042	-5.446037	73.483600	57.009611	22.395765	-11.703529	81.148463	61.914146
-0.435000	-160.147433	-5.066637	-73.570646	-0.007389	-0.152664	-0.079932	104.819968	18.123113	-6.124936	13.198030	7.181717	-30.349210	-48.725460	39.922542	11.950262	55.659086	52.663630	37.834146	5.497772	65.539018	44.013224	30.542667	-5.397551	73.184716	56.914113	22.193487	-11.666400	80.821585	61.895381
-0.425000	-160.147433	-5.066637	-73.570646	-0.008413	-0.151750	-0.080774	104.506161	18.291220	-6.163669	13.163431	7.266293	-30.239742	-48.677442	39.962393	11.864571	55.472903	52.581910	38.147397	5.472087	65.119926	43.749993	30.656251	-5.346418	72.807616	56.780993	22.038540	-11.670847	80.451086	61.878775
-0.415000	-160.147433	-5.066637	-73.570646	-0.009609	-0.150769	-0.081709	104.206863	18.471119	-6.224526	13.131653	7.452673	-30.049352	-48.550197	40.043305	11.781565	55.387583	52.438724	38.461074	5.453160	64.762978	43.522303	30.850017	-5.295231	72.408782	56.648113	21.958475	-11.720880	80.100783	61.877099
-0.405000	-160.147433	-5.066637	-73.570646	-0.011002	-0.149749	-0.082752	103.924858	18.665124	-6.316680	13.114500	7.727708	-29.810995	-48.370896	40.153216	11.705736	55.432795	52.244718	38.719187	5.443955	64.558281	43.409203	31.112986	-5.247275	72.047346	56.560962	21.972509	-11.805583	79.829534	61.902992
-0.395000	-160.147433	-5.066637	-73.570646	-0.012598	-0.148688	-0.083917	103.686562	18.880421	-6.442487	13.116129	8.056504	-29.582701	-48.189793	40.252831	11.633188	55.620535	52.035279	38.871430	5.445603	64.555970	43.465599	31.413918	-5.206253	71.770706	56.557144	22.083482	-11.901432	79.672959	61.961587
-0.385000	-160.147433	-5.066637	-73.570646	-0.014381	-0.147569	-0.085215	103.517998	19.123789	-6.591051	13.131551	8.397536	-29.424571	-48.058563	40.285203	11.553835	55.939156	51.851563	38.890558	5.456767	64.747775	43.700289	31.714202	-5.175740	71.600225	56.649101	22.275249	-11.979921	79.627292	62.041870
-0.375000	-160.147433	-5.066637	-73.570646	-0.016323	-0.146379	-0.086642	103.420859	19.394879	-6.739411	13.152243	8.719523	-29.372696	-48.008427	40.196807	11.458421	56.354602	51.718486	38.781867	5.473293	65.071969	44.070953	31.985915	-5.158425	71.524208	56.815535	22.519281	-12.017361	79.647604	62.115121
-0.365000	-160.147433	-5.066637	-73.570646	-0.018394	-0.145120	-0.088184	103.364810	19.682951	-6.861391	13.174795	9.010899	-29.423391	-48.038749	39.962330	11.346171	56.819476	51.636446	38.581924	5.488528	65.440650	44.499707	32.225962	-5.155116	71.503902	57.009210	22.788463	-12.003433	79.666279	62.145929
-0.355000	-160.147433	-5.066637	-73.570646	-0.020570	-0.143816	-0.089811	103.300616	19.970235	-6.938937	13.205680	9.278096	-29.535174	-48.118984	39.601542	11.228358	57.286628	51.592539	38.347431	5.494792	65.776597	44.903496	32.458129	-5.163840	71.492289	57.179160	23.070320	-11.946018	79.625957	62.112348
-0.345000	-160.147433	-5.066637	-73.570646	-0.022841	-0.142506	-0.091488	103.185576	20.240503	-6.969470	13.258236	9.536287	-29.646869	-48.201015	39.178251	11.126016	57.721698	51.581515	38.138373	5.486131	66.041578	45.225800	32.721291	-5.179854	71.457691	57.295781	23.371544	-11.870781	79.511651	62.023790
-0.335000	-160.147433	-5.066637	-73.570646	-0.025202	-0.141230	-0.093183	103.006415	20.487481	-6.965385	13.343476	9.800107	-29.702650	-48.236224	38.778956	11.063413	58.109004	51.619365	38.001205	5.461711	66.242783	45.454586	33.049484	-5.197144	71.400180	57.365163	23.711232	-11.815255	79.364796	61.924784
-0.325000	-160.147433	-5.066637	-73.570646	-0.027651	-0.140012	-0.094873	102.786947	20.717133	-6.945905	13.459932	10.080345	-29.671539	-48.189886	38.479031	11.060357	58.447293	51.737939	37.956942	5.428255	66.416551	45.618887	33.452828	-5.211085	71.352229	57.425501	24.106441	-11.818606	79.268895	61.879976
-0.315000	-160.147433	-5.066637	-73.570646	-0.030177	-0.138850	-0.096549	102.576290	20.941564	-6.924736	13.587773	10.387527	-29.552198	-48.046599	38.311101	11.125893	58.736318	51.963140	37.996169	5.399693	66.600722	45.768617	33.906274	-5.220961	71.363564	57.528366	24.555945	-11.909663	79.309850	61.946011
-0.305000	-160.147433	-5.066637	-73.570646	-0.032744	-0.137723	-0.098206	102.424163	21.168251	-6.899068	13.690088	10.737643	-29.363358	-47.806611	38.249619	11.255048	58.960866	52.291926	38.080271	5.393097	66.811319	45.950472	34.349221	-5.230895	71.477580	57.714731	25.027416	-12.096698	79.527508	62.143548
-0.295000	-160.147433	-5.066637	-73.570646	-0.035285	-0.136611	-0.099833	102.358086	21.392165	-6.845995	13.722078	11.152028	-29.129278	-47.479985	38.217973	11.429670	59.082997	52.684959	38.147775	5.422048	67.034476	46.191589	34.696270	-5.248311	71.708819	57.996568	25.453101	-12.363271	79.882069	62.444077
-0.285000	-160.147433	-5.066637	-73.570646	-0.037714	-0.135504	-0.101407	102.377958	21.596858	-6.730205	13.647609	11.645962	-28.870621	-47.085621	38.113716	11.623663	59.051944	53.080663	38.125593	5.490546	67.234671	46.495231	34.857391	-5.280276	72.029181	58.350712	25.739206	-12.673940	80.254857	62.780044
-0.275000	-160.147433	-5.066637	-73.570646	-0.039951	-0.134413	-0.102904	102.473671	21.764426	-6.521324	13.459971	12.209810	-28.603621	-46.654685	37.839523	11.811293	58.831905	53.421830	37.944513	5.590921	67.372114	46.846052	34.762253	-5.329563	72.367978	58.725756	25.790470	-12.989080	80.487609	63.074590
-0.265000	-160.147433	-5.066637	-73.570646	-0.041953	-0.133367	-0.104305	102.654920	21.888288	-6.212987	13.198296	12.796665	-28.342807	-46.231267	37.327310	11.975281	58.434401	53.678610	37.555974	5.707016	67.419714	47.220073	34.380257	-5.392701	72.628497	59.058274	25.543154	-13.281020	80.444880	63.275283
-0.255000	-160.147433	-5.066637	-73.570646	-0.043718	-0.132402	-0.105609	102.970758	21.981318	-5.832980	12.947126	13.330403	-28.101728	-45.864362	36.550315	12.110930	57.933533	53.855714	36.945636	5.820670	67.372875	47.594960	33.729465	-5.461100	72.719341	59.293157	24.993231	-13.541379	80.071534	63.373779
-0.245000	-160.147433	-5.066637	-73.570646	-0.045270	-0.131560	-0.106822	103.501434	22.075147	-5.437773	12.811412	13.734035	-27.890391	-45.592438	35.526114	12.224841	57.448707	53.982550	36.139832	5.917904	67.250178	47.957782	32.873522	-5.524412	72.591926	59.403383	24.207766	-13.775992	79.418794	63.403376
